<?xml version="1.0" encoding="us-ascii" standalone="no"?><svg xmlns="http://www.w3.org/2000/svg" xmlns:xlink="http://www.w3.org/1999/xlink" contentStyleType="text/css" height="1195px" preserveAspectRatio="none" style="width:1187px;height:1195px;" version="1.1" viewBox="0 0 1187 1195" width="1187px" zoomAndPan="magnify"><defs><linearGradient id="g1n90jj32p1op40" x1="50%" x2="50%" y1="0%" y2="100%"><stop offset="0%" stop-color="#F4F4F4"/><stop offset="100%" stop-color="#F4F4F4"/></linearGradient></defs><g><line style="stroke:#C6C6C6;stroke-width:0.5;stroke-dasharray:5.0,5.0;" x1="34" x2="34" y1="98.9688" y2="1097.3438"/><line style="stroke:#C6C6C6;stroke-width:0.5;stroke-dasharray:5.0,5.0;" x1="232.5" x2="232.5" y1="98.9688" y2="1097.3438"/><line style="stroke:#C6C6C6;stroke-width:0.5;stroke-dasharray:5.0,5.0;" x1="390.5" x2="390.5" y1="98.9688" y2="1097.3438"/><line style="stroke:#C6C6C6;stroke-width:0.5;stroke-dasharray:5.0,5.0;" x1="602" x2="602" y1="98.9688" y2="1097.3438"/><line style="stroke:#C6C6C6;stroke-width:0.5;stroke-dasharray:5.0,5.0;" x1="773" x2="773" y1="98.9688" y2="1097.3438"/><line style="stroke:#C6C6C6;stroke-width:0.5;stroke-dasharray:5.0,5.0;" x1="955" x2="955" y1="98.9688" y2="1097.3438"/><line style="stroke:#C6C6C6;stroke-width:0.5;stroke-dasharray:5.0,5.0;" x1="1138" x2="1138" y1="98.9688" y2="1097.3438"/><text fill="#262626" font-family="IBM Plex Sans, Noto Sans, Verdana" font-size="12" lengthAdjust="spacing" textLength="33" x="15" y="86.1387">Client</text><ellipse cx="34.5" cy="13.5" fill="url(#g1n90jj32p1op40)" rx="8" ry="8" style="stroke:#C6C6C6;stroke-width:0.5;"/><path d="M34.5,21.5 L34.5,48.5 M21.5,29.5 L47.5,29.5 M34.5,48.5 L21.5,63.5 M34.5,48.5 L47.5,63.5 " fill="none" style="stroke:#C6C6C6;stroke-width:0.5;"/><text fill="#262626" font-family="IBM Plex Sans, Noto Sans, Verdana" font-size="12" lengthAdjust="spacing" textLength="33" x="15" y="1117.4824">Client</text><ellipse cx="34.5" cy="1138.8125" fill="url(#g1n90jj32p1op40)" rx="8" ry="8" style="stroke:#C6C6C6;stroke-width:0.5;"/><path d="M34.5,1146.8125 L34.5,1173.8125 M21.5,1154.8125 L47.5,1154.8125 M34.5,1173.8125 L21.5,1188.8125 M34.5,1173.8125 L47.5,1188.8125 " fill="none" style="stroke:#C6C6C6;stroke-width:0.5;"/><rect fill="url(#g1n90jj32p1op40)" height="47.9688" style="stroke:#C6C6C6;stroke-width:0.5;" width="66" x="199.5" y="50"/><text fill="#262626" font-family="IBM Plex Sans, Noto Sans, Verdana" font-size="12" lengthAdjust="spacing" textLength="32" x="216.5" y="78.1387">Login</text><rect fill="url(#g1n90jj32p1op40)" height="47.9688" style="stroke:#C6C6C6;stroke-width:0.5;" width="66" x="199.5" y="1096.3438"/><text fill="#262626" font-family="IBM Plex Sans, Noto Sans, Verdana" font-size="12" lengthAdjust="spacing" textLength="32" x="216.5" y="1124.4824">Login</text><rect fill="url(#g1n90jj32p1op40)" height="47.9688" style="stroke:#C6C6C6;stroke-width:0.5;" width="100" x="340.5" y="50"/><text fill="#262626" font-family="IBM Plex Sans, Noto Sans, Verdana" font-size="12" lengthAdjust="spacing" textLength="66" x="357.5" y="78.1387">Dashboard</text><rect fill="url(#g1n90jj32p1op40)" height="47.9688" style="stroke:#C6C6C6;stroke-width:0.5;" width="100" x="340.5" y="1096.3438"/><text fill="#262626" font-family="IBM Plex Sans, Noto Sans, Verdana" font-size="12" lengthAdjust="spacing" textLength="66" x="357.5" y="1124.4824">Dashboard</text><rect fill="url(#g1n90jj32p1op40)" height="47.9688" style="stroke:#C6C6C6;stroke-width:0.5;" width="117" x="544" y="50"/><text fill="#262626" font-family="IBM Plex Sans, Noto Sans, Verdana" font-size="12" lengthAdjust="spacing" textLength="83" x="561" y="78.1387">EventCreation</text><rect fill="url(#g1n90jj32p1op40)" height="47.9688" style="stroke:#C6C6C6;stroke-width:0.5;" width="117" x="544" y="1096.3438"/><text fill="#262626" font-family="IBM Plex Sans, Noto Sans, Verdana" font-size="12" lengthAdjust="spacing" textLength="83" x="561" y="1124.4824">EventCreation</text><rect fill="url(#g1n90jj32p1op40)" height="47.9688" style="stroke:#C6C6C6;stroke-width:0.5;" width="84" x="731" y="50"/><text fill="#262626" font-family="IBM Plex Sans, Noto Sans, Verdana" font-size="12" lengthAdjust="spacing" textLength="50" x="748" y="78.1387">Invoices</text><rect fill="url(#g1n90jj32p1op40)" height="47.9688" style="stroke:#C6C6C6;stroke-width:0.5;" width="84" x="731" y="1096.3438"/><text fill="#262626" font-family="IBM Plex Sans, Noto Sans, Verdana" font-size="12" lengthAdjust="spacing" textLength="50" x="748" y="1124.4824">Invoices</text><rect fill="url(#g1n90jj32p1op40)" height="47.9688" style="stroke:#C6C6C6;stroke-width:0.5;" width="140" x="885" y="50"/><text fill="#262626" font-family="IBM Plex Sans, Noto Sans, Verdana" font-size="12" lengthAdjust="spacing" textLength="106" x="902" y="78.1387">CustomerSupport</text><rect fill="url(#g1n90jj32p1op40)" height="47.9688" style="stroke:#C6C6C6;stroke-width:0.5;" width="140" x="885" y="1096.3438"/><text fill="#262626" font-family="IBM Plex Sans, Noto Sans, Verdana" font-size="12" lengthAdjust="spacing" textLength="106" x="902" y="1124.4824">CustomerSupport</text><rect fill="url(#g1n90jj32p1op40)" height="47.9688" style="stroke:#C6C6C6;stroke-width:0.5;" width="86" x="1095" y="50"/><text fill="#262626" font-family="IBM Plex Sans, Noto Sans, Verdana" font-size="12" lengthAdjust="spacing" textLength="52" x="1112" y="78.1387">Manager</text><rect fill="url(#g1n90jj32p1op40)" height="47.9688" style="stroke:#C6C6C6;stroke-width:0.5;" width="86" x="1095" y="1096.3438"/><text fill="#262626" font-family="IBM Plex Sans, Noto Sans, Verdana" font-size="12" lengthAdjust="spacing" textLength="52" x="1112" y="1124.4824">Manager</text><polygon fill="#C6C6C6" points="220.5,144.9375,230.5,148.9375,220.5,152.9375,224.5,148.9375" style="stroke:#C6C6C6;stroke-width:1.0;"/><line style="stroke:#C6C6C6;stroke-width:1.0;" x1="34.5" x2="226.5" y1="148.9375" y2="148.9375"/><text fill="#262626" font-family="IBM Plex Sans, Noto Sans, Verdana" font-size="12" lengthAdjust="spacing" textLength="154" x="51.5" y="134.1074">Enter Email and Password</text><polygon fill="#C6C6C6" points="378.5,192.9063,388.5,196.9063,378.5,200.9063,382.5,196.9063" style="stroke:#C6C6C6;stroke-width:1.0;"/><line style="stroke:#C6C6C6;stroke-width:1.0;" x1="232.5" x2="384.5" y1="196.9063" y2="196.9063"/><text fill="#262626" font-family="IBM Plex Sans, Noto Sans, Verdana" font-size="12" lengthAdjust="spacing" textLength="114" x="249.5" y="182.0762">Access Dashboard</text><path d="M274,209.9063 L274,252.9063 L507,252.9063 L507,219.9063 L497,209.9063 L274,209.9063 " fill="#FFFFFF" style="stroke:#262626;stroke-width:1.0;"/><path d="M497,209.9063 L497,219.9063 L507,219.9063 L497,209.9063 " fill="#FFFFFF" style="stroke:#262626;stroke-width:1.0;"/><text fill="#262626" font-family="IBM Plex Sans, Noto Sans, Verdana" font-size="12" lengthAdjust="spacing" textLength="192" x="290" y="236.0449">View Upcoming and Past Events</text><polygon fill="#C6C6C6" points="378.5,294.8438,388.5,298.8438,378.5,302.8438,382.5,298.8438" style="stroke:#C6C6C6;stroke-width:1.0;"/><line style="stroke:#C6C6C6;stroke-width:1.0;" x1="34.5" x2="384.5" y1="298.8438" y2="298.8438"/><text fill="#262626" font-family="IBM Plex Sans, Noto Sans, Verdana" font-size="12" lengthAdjust="spacing" textLength="164" x="51.5" y="284.0137">View/Edit Upcoming Events</text><polygon fill="#C6C6C6" points="45.5,342.8125,35.5,346.8125,45.5,350.8125,41.5,346.8125" style="stroke:#C6C6C6;stroke-width:1.0;"/><line style="stroke:#C6C6C6;stroke-width:1.0;stroke-dasharray:2.0,2.0;" x1="39.5" x2="389.5" y1="346.8125" y2="346.8125"/><text fill="#262626" font-family="IBM Plex Sans, Noto Sans, Verdana" font-size="12" lengthAdjust="spacing" textLength="153" x="61.5" y="331.9824">Display Upcoming Events</text><polygon fill="#C6C6C6" points="378.5,390.7813,388.5,394.7813,378.5,398.7813,382.5,394.7813" style="stroke:#C6C6C6;stroke-width:1.0;"/><line style="stroke:#C6C6C6;stroke-width:1.0;" x1="34.5" x2="384.5" y1="394.7813" y2="394.7813"/><text fill="#262626" font-family="IBM Plex Sans, Noto Sans, Verdana" font-size="12" lengthAdjust="spacing" textLength="107" x="51.5" y="379.9512">Create New Event</text><polygon fill="#C6C6C6" points="590.5,438.75,600.5,442.75,590.5,446.75,594.5,442.75" style="stroke:#C6C6C6;stroke-width:1.0;"/><line style="stroke:#C6C6C6;stroke-width:1.0;" x1="390.5" x2="596.5" y1="442.75" y2="442.75"/><text fill="#262626" font-family="IBM Plex Sans, Noto Sans, Verdana" font-size="12" lengthAdjust="spacing" textLength="168" x="407.5" y="427.9199">Access Event Creation Page</text><polygon fill="#C6C6C6" points="45.5,486.7188,35.5,490.7188,45.5,494.7188,41.5,490.7188" style="stroke:#C6C6C6;stroke-width:1.0;"/><line style="stroke:#C6C6C6;stroke-width:1.0;stroke-dasharray:2.0,2.0;" x1="39.5" x2="601.5" y1="490.7188" y2="490.7188"/><text fill="#262626" font-family="IBM Plex Sans, Noto Sans, Verdana" font-size="12" lengthAdjust="spacing" textLength="112" x="61.5" y="475.8887">Fill in Event Details</text><polygon fill="#C6C6C6" points="590.5,534.6875,600.5,538.6875,590.5,542.6875,594.5,538.6875" style="stroke:#C6C6C6;stroke-width:1.0;"/><line style="stroke:#C6C6C6;stroke-width:1.0;" x1="34.5" x2="596.5" y1="538.6875" y2="538.6875"/><text fill="#262626" font-family="IBM Plex Sans, Noto Sans, Verdana" font-size="12" lengthAdjust="spacing" textLength="123" x="51.5" y="523.8574">Submit Event Details</text><polygon fill="#C6C6C6" points="401.5,582.6563,391.5,586.6563,401.5,590.6563,397.5,586.6563" style="stroke:#C6C6C6;stroke-width:1.0;"/><line style="stroke:#C6C6C6;stroke-width:1.0;" x1="395.5" x2="601.5" y1="586.6563" y2="586.6563"/><text fill="#262626" font-family="IBM Plex Sans, Noto Sans, Verdana" font-size="12" lengthAdjust="spacing" textLength="153" x="417.5" y="571.8262">Update Upcoming Events</text><polygon fill="#C6C6C6" points="378.5,630.625,388.5,634.625,378.5,638.625,382.5,634.625" style="stroke:#C6C6C6;stroke-width:1.0;"/><line style="stroke:#C6C6C6;stroke-width:1.0;" x1="34.5" x2="384.5" y1="634.625" y2="634.625"/><text fill="#262626" font-family="IBM Plex Sans, Noto Sans, Verdana" font-size="12" lengthAdjust="spacing" textLength="83" x="51.5" y="619.7949">View Invoices</text><polygon fill="#C6C6C6" points="761,678.5938,771,682.5938,761,686.5938,765,682.5938" style="stroke:#C6C6C6;stroke-width:1.0;"/><line style="stroke:#C6C6C6;stroke-width:1.0;" x1="390.5" x2="767" y1="682.5938" y2="682.5938"/><text fill="#262626" font-family="IBM Plex Sans, Noto Sans, Verdana" font-size="12" lengthAdjust="spacing" textLength="131" x="407.5" y="667.7637">Access Invoices Page</text><polygon fill="#C6C6C6" points="45.5,726.5625,35.5,730.5625,45.5,734.5625,41.5,730.5625" style="stroke:#C6C6C6;stroke-width:1.0;"/><line style="stroke:#C6C6C6;stroke-width:1.0;stroke-dasharray:2.0,2.0;" x1="39.5" x2="772" y1="730.5625" y2="730.5625"/><text fill="#262626" font-family="IBM Plex Sans, Noto Sans, Verdana" font-size="12" lengthAdjust="spacing" textLength="98" x="61.5" y="715.7324">Display Invoices</text><polygon fill="#C6C6C6" points="761,774.5313,771,778.5313,761,782.5313,765,778.5313" style="stroke:#C6C6C6;stroke-width:1.0;"/><line style="stroke:#C6C6C6;stroke-width:1.0;" x1="34.5" x2="767" y1="778.5313" y2="778.5313"/><text fill="#262626" font-family="IBM Plex Sans, Noto Sans, Verdana" font-size="12" lengthAdjust="spacing" textLength="67" x="51.5" y="763.7012">Pay Invoice</text><line style="stroke:#C6C6C6;stroke-width:1.0;" x1="773" x2="815" y1="826.5" y2="826.5"/><line style="stroke:#C6C6C6;stroke-width:1.0;" x1="815" x2="815" y1="826.5" y2="839.5"/><line style="stroke:#C6C6C6;stroke-width:1.0;" x1="774" x2="815" y1="839.5" y2="839.5"/><polygon fill="#C6C6C6" points="784,835.5,774,839.5,784,843.5,780,839.5" style="stroke:#C6C6C6;stroke-width:1.0;"/><text fill="#262626" font-family="IBM Plex Sans, Noto Sans, Verdana" font-size="12" lengthAdjust="spacing" textLength="132" x="790" y="811.6699">Update Invoice Status</text><polygon fill="#C6C6C6" points="378.5,883.4688,388.5,887.4688,378.5,891.4688,382.5,887.4688" style="stroke:#C6C6C6;stroke-width:1.0;"/><line style="stroke:#C6C6C6;stroke-width:1.0;" x1="34.5" x2="384.5" y1="887.4688" y2="887.4688"/><text fill="#262626" font-family="IBM Plex Sans, Noto Sans, Verdana" font-size="12" lengthAdjust="spacing" textLength="159" x="51.5" y="872.6387">Contact Customer Support</text><polygon fill="#C6C6C6" points="943,931.4375,953,935.4375,943,939.4375,947,935.4375" style="stroke:#C6C6C6;stroke-width:1.0;"/><line style="stroke:#C6C6C6;stroke-width:1.0;" x1="390.5" x2="949" y1="935.4375" y2="935.4375"/><text fill="#262626" font-family="IBM Plex Sans, Noto Sans, Verdana" font-size="12" lengthAdjust="spacing" textLength="191" x="407.5" y="920.6074">Access Customer Support Page</text><polygon fill="#C6C6C6" points="45.5,979.4063,35.5,983.4063,45.5,987.4063,41.5,983.4063" style="stroke:#C6C6C6;stroke-width:1.0;"/><line style="stroke:#C6C6C6;stroke-width:1.0;stroke-dasharray:2.0,2.0;" x1="39.5" x2="954" y1="983.4063" y2="983.4063"/><text fill="#262626" font-family="IBM Plex Sans, Noto Sans, Verdana" font-size="12" lengthAdjust="spacing" textLength="144" x="61.5" y="968.5762">Display Contact Options</text><polygon fill="#C6C6C6" points="1126,1027.375,1136,1031.375,1126,1035.375,1130,1031.375" style="stroke:#C6C6C6;stroke-width:1.0;"/><line style="stroke:#C6C6C6;stroke-width:1.0;" x1="34.5" x2="1132" y1="1031.375" y2="1031.375"/><text fill="#262626" font-family="IBM Plex Sans, Noto Sans, Verdana" font-size="12" lengthAdjust="spacing" textLength="146" x="51.5" y="1016.5449">Submit Support Request</text><polygon fill="#C6C6C6" points="45.5,1075.3438,35.5,1079.3438,45.5,1083.3438,41.5,1079.3438" style="stroke:#C6C6C6;stroke-width:1.0;"/><line style="stroke:#C6C6C6;stroke-width:1.0;" x1="39.5" x2="1137" y1="1079.3438" y2="1079.3438"/><text fill="#262626" font-family="IBM Plex Sans, Noto Sans, Verdana" font-size="12" lengthAdjust="spacing" textLength="174" x="61.5" y="1064.5137">Respond to Support Request</text><!--SRC=[ZLD1QiCm4Bph5Ti7XDvp29J4XKARXeJqhjYB8x2rghHEoE-hs9OigodqP3GxEpkZbP_uZ2r2AUs9zAAsyYQ4B9aih1k5ceKOlh1OmJlLIY-Xq8mMYbQg1gIkO2UTkvAjH5-_4pVIdKyaRRM4bx94voP424sCG1SlaT2-55xXQ4fgbQw3AaDnyQDTwY7hUIugnLFZo8yaMFYMeNa96-LC8s-_s8_LrnQbDxhrldfUAheQe9wYICUKFGe1zX5g53FcpC-hQXhm5pPqRP3zXSxSP4CEtQbLdD4p-Lc4ewdk4VwNjz_0cxwGyb7cOGCQSmPWI1XFZouxAYPJ9xtTn4XaKiQOOGJWm9AxFrT6cltRXNNdc5h_m0wTCMIprONgM8oXyguXNCP-c37C_JJt9SpSVKZjLMnSNf3PutU7ZiLOXqHrZywG_m6OSlOF]--></g></svg>