<?xml version="1.0" encoding="us-ascii" standalone="no"?><svg xmlns="http://www.w3.org/2000/svg" xmlns:xlink="http://www.w3.org/1999/xlink" contentStyleType="text/css" height="1724px" preserveAspectRatio="none" style="width:1146px;height:1724px;" version="1.1" viewBox="0 0 1146 1724" width="1146px" zoomAndPan="magnify"><defs><linearGradient id="g1em704ess4mqp0" x1="50%" x2="50%" y1="0%" y2="100%"><stop offset="0%" stop-color="#F4F4F4"/><stop offset="100%" stop-color="#F4F4F4"/></linearGradient></defs><g><!--class users--><g id="elem_users"><rect codeLine="5" fill="url(#g1em704ess4mqp0)" height="485.2656" id="users" style="stroke:#C6C6C6;stroke-width:1.0;" width="167" x="158" y="7"/><rect fill="url(#g1em704ess4mqp0)" height="42.8047" style="stroke:#C6C6C6;stroke-width:1.0;" width="167" x="158" y="7"/><ellipse cx="211.5" cy="28.4023" fill="#ADD1B2" rx="10" ry="10" style="stroke:#181818;stroke-width:1.0;"/><path d="M210.8281,28.9805 L211.8438,28.9805 L211.8438,29.0742 C211.8438,29.3555 211.875,29.4648 211.9375,29.5742 C212.0469,29.7617 212.25,29.8555 212.4531,29.8555 C212.625,29.8555 212.8125,29.7617 212.9219,29.6055 C213.0156,29.4961 213.0313,29.3867 213.0313,29.0742 L213.0313,27.7148 C213.0313,27.6055 213.0313,27.5742 213.0313,27.4648 C212.9688,27.1211 212.7656,26.918 212.4375,26.918 C212.25,26.918 212.0781,27.0117 211.9531,27.168 C211.875,27.2773 211.8438,27.3867 211.8438,27.7148 L211.8438,27.793 L210.8281,27.793 L210.8281,26.1055 L213.6406,26.1055 L213.6406,26.6992 C213.6406,26.9961 213.6563,27.1211 213.7188,27.2148 C213.8438,27.4023 214.0313,27.5117 214.2344,27.5117 C214.4219,27.5117 214.6094,27.418 214.7344,27.2617 C214.8125,27.1367 214.8438,27.043 214.8438,26.6992 L214.8438,24.9023 L209.4531,24.9023 C209.1406,24.9023 209.0469,24.918 208.9375,24.9961 C208.7656,25.1055 208.6563,25.3086 208.6563,25.5117 C208.6563,25.6992 208.75,25.8711 208.9063,25.9961 C209.0156,26.0898 209.1406,26.1055 209.4531,26.1055 L209.625,26.1055 L209.625,30.6992 L209.4531,30.6992 C209.1563,30.6992 209.0469,30.7148 208.9375,30.793 C208.7656,30.9023 208.6563,31.1055 208.6563,31.3086 C208.6563,31.4961 208.75,31.668 208.9063,31.7773 C209,31.8711 209.1719,31.9023 209.4531,31.9023 L215.0938,31.9023 L215.0938,30.0742 C215.0938,29.7773 215.0781,29.668 215.0156,29.5586 C214.8906,29.3867 214.7031,29.2773 214.5,29.2773 C214.3125,29.2773 214.125,29.3555 214.0156,29.5273 C213.9219,29.6523 213.9063,29.7461 213.9063,30.0742 L213.9063,30.6992 L210.8281,30.6992 L210.8281,28.9805 Z " fill="#000000"/><text fill="#262626" font-family="IBM Plex Sans, Noto Sans, Verdana" font-size="11" lengthAdjust="spacing" textLength="32" x="240.5" y="32.2104">Users</text><line style="stroke:#C6C6C6;stroke-width:1.0;" x1="159" x2="324" y1="49.8047" y2="49.8047"/><ellipse cx="169" cy="71.707" fill="none" rx="3" ry="3" style="stroke:#038048;stroke-width:1.0;"/><text fill="#262626" font-family="IBM Plex Sans, Noto Sans, Verdana" font-size="11" lengthAdjust="spacing" textLength="60" x="187" y="74.0151">userId : int</text><text fill="#262626" font-family="IBM Plex Sans, Noto Sans, Verdana" font-size="11" lengthAdjust="spacing" textLength="111" x="187" y="106.8198">username : varchar</text><text fill="#262626" font-family="IBM Plex Sans, Noto Sans, Verdana" font-size="11" lengthAdjust="spacing" textLength="85" x="187" y="139.6245">email : varchar</text><text fill="#262626" font-family="IBM Plex Sans, Noto Sans, Verdana" font-size="11" lengthAdjust="spacing" textLength="106" x="187" y="172.4292">password : varchar</text><text fill="#262626" font-family="IBM Plex Sans, Noto Sans, Verdana" font-size="11" lengthAdjust="spacing" textLength="75" x="187" y="205.2339">role : varchar</text><text fill="#262626" font-family="IBM Plex Sans, Noto Sans, Verdana" font-size="11" lengthAdjust="spacing" textLength="86" x="187" y="238.0386">name : varchar</text><text fill="#262626" font-family="IBM Plex Sans, Noto Sans, Verdana" font-size="11" lengthAdjust="spacing" textLength="89" x="187" y="270.8433">phone : varchar</text><text fill="#262626" font-family="IBM Plex Sans, Noto Sans, Verdana" font-size="11" lengthAdjust="spacing" textLength="98" x="187" y="303.6479">address : varchar</text><text fill="#262626" font-family="IBM Plex Sans, Noto Sans, Verdana" font-size="11" lengthAdjust="spacing" textLength="73" x="187" y="336.4526">city : varchar</text><text fill="#262626" font-family="IBM Plex Sans, Noto Sans, Verdana" font-size="11" lengthAdjust="spacing" textLength="82" x="187" y="369.2573">state : varchar</text><text fill="#262626" font-family="IBM Plex Sans, Noto Sans, Verdana" font-size="11" lengthAdjust="spacing" textLength="42" x="187" y="402.062">zip : int</text><text fill="#262626" font-family="IBM Plex Sans, Noto Sans, Verdana" font-size="11" lengthAdjust="spacing" textLength="119" x="187" y="434.8667">createdAt : datetime</text><text fill="#262626" font-family="IBM Plex Sans, Noto Sans, Verdana" font-size="11" lengthAdjust="spacing" textLength="122" x="187" y="467.6714">updatedAt : datetime</text><line style="stroke:#C6C6C6;stroke-width:1.0;" x1="159" x2="324" y1="484.2656" y2="484.2656"/></g><!--class companies--><g id="elem_companies"><rect codeLine="21" fill="url(#g1em704ess4mqp0)" height="157.2188" id="companies" style="stroke:#C6C6C6;stroke-width:1.0;" width="170" x="207.5" y="751"/><rect fill="url(#g1em704ess4mqp0)" height="42.8047" style="stroke:#C6C6C6;stroke-width:1.0;" width="170" x="207.5" y="751"/><ellipse cx="246.7" cy="772.4023" fill="#ADD1B2" rx="10" ry="10" style="stroke:#181818;stroke-width:1.0;"/><path d="M246.0281,772.9805 L247.0438,772.9805 L247.0438,773.0742 C247.0438,773.3555 247.075,773.4648 247.1375,773.5742 C247.2469,773.7617 247.45,773.8555 247.6531,773.8555 C247.825,773.8555 248.0125,773.7617 248.1219,773.6055 C248.2156,773.4961 248.2313,773.3867 248.2313,773.0742 L248.2313,771.7148 C248.2313,771.6055 248.2313,771.5742 248.2313,771.4648 C248.1688,771.1211 247.9656,770.918 247.6375,770.918 C247.45,770.918 247.2781,771.0117 247.1531,771.168 C247.075,771.2773 247.0438,771.3867 247.0438,771.7148 L247.0438,771.793 L246.0281,771.793 L246.0281,770.1055 L248.8406,770.1055 L248.8406,770.6992 C248.8406,770.9961 248.8563,771.1211 248.9188,771.2148 C249.0438,771.4023 249.2313,771.5117 249.4344,771.5117 C249.6219,771.5117 249.8094,771.418 249.9344,771.2617 C250.0125,771.1367 250.0438,771.043 250.0438,770.6992 L250.0438,768.9023 L244.6531,768.9023 C244.3406,768.9023 244.2469,768.918 244.1375,768.9961 C243.9656,769.1055 243.8563,769.3086 243.8563,769.5117 C243.8563,769.6992 243.95,769.8711 244.1063,769.9961 C244.2156,770.0898 244.3406,770.1055 244.6531,770.1055 L244.825,770.1055 L244.825,774.6992 L244.6531,774.6992 C244.3563,774.6992 244.2469,774.7148 244.1375,774.793 C243.9656,774.9023 243.8563,775.1055 243.8563,775.3086 C243.8563,775.4961 243.95,775.668 244.1063,775.7773 C244.2,775.8711 244.3719,775.9023 244.6531,775.9023 L250.2938,775.9023 L250.2938,774.0742 C250.2938,773.7773 250.2781,773.668 250.2156,773.5586 C250.0906,773.3867 249.9031,773.2773 249.7,773.2773 C249.5125,773.2773 249.325,773.3555 249.2156,773.5273 C249.1219,773.6523 249.1063,773.7461 249.1063,774.0742 L249.1063,774.6992 L246.0281,774.6992 L246.0281,772.9805 Z " fill="#000000"/><text fill="#262626" font-family="IBM Plex Sans, Noto Sans, Verdana" font-size="11" lengthAdjust="spacing" textLength="64" x="275.3" y="776.2104">Companies</text><line style="stroke:#C6C6C6;stroke-width:1.0;" x1="208.5" x2="376.5" y1="793.8047" y2="793.8047"/><ellipse cx="218.5" cy="815.707" fill="none" rx="3" ry="3" style="stroke:#038048;stroke-width:1.0;"/><text fill="#262626" font-family="IBM Plex Sans, Noto Sans, Verdana" font-size="11" lengthAdjust="spacing" textLength="60" x="236.5" y="818.0151">userId : int</text><text fill="#262626" font-family="IBM Plex Sans, Noto Sans, Verdana" font-size="11" lengthAdjust="spacing" textLength="125" x="236.5" y="850.8198">paymentInfo : varchar</text><text fill="#262626" font-family="IBM Plex Sans, Noto Sans, Verdana" font-size="11" lengthAdjust="spacing" textLength="98" x="236.5" y="883.6245">industry : varchar</text><line style="stroke:#C6C6C6;stroke-width:1.0;" x1="208.5" x2="376.5" y1="900.2188" y2="900.2188"/></g><!--class managers--><g id="elem_managers"><rect codeLine="27" fill="url(#g1em704ess4mqp0)" height="190.0234" id="managers" style="stroke:#C6C6C6;stroke-width:1.0;" width="165" x="413" y="734.5"/><rect fill="url(#g1em704ess4mqp0)" height="42.8047" style="stroke:#C6C6C6;stroke-width:1.0;" width="165" x="413" y="734.5"/><ellipse cx="454" cy="755.9023" fill="#ADD1B2" rx="10" ry="10" style="stroke:#181818;stroke-width:1.0;"/><path d="M453.3281,756.4805 L454.3438,756.4805 L454.3438,756.5742 C454.3438,756.8555 454.375,756.9648 454.4375,757.0742 C454.5469,757.2617 454.75,757.3555 454.9531,757.3555 C455.125,757.3555 455.3125,757.2617 455.4219,757.1055 C455.5156,756.9961 455.5313,756.8867 455.5313,756.5742 L455.5313,755.2148 C455.5313,755.1055 455.5313,755.0742 455.5313,754.9648 C455.4688,754.6211 455.2656,754.418 454.9375,754.418 C454.75,754.418 454.5781,754.5117 454.4531,754.668 C454.375,754.7773 454.3438,754.8867 454.3438,755.2148 L454.3438,755.293 L453.3281,755.293 L453.3281,753.6055 L456.1406,753.6055 L456.1406,754.1992 C456.1406,754.4961 456.1563,754.6211 456.2188,754.7148 C456.3438,754.9023 456.5313,755.0117 456.7344,755.0117 C456.9219,755.0117 457.1094,754.918 457.2344,754.7617 C457.3125,754.6367 457.3438,754.543 457.3438,754.1992 L457.3438,752.4023 L451.9531,752.4023 C451.6406,752.4023 451.5469,752.418 451.4375,752.4961 C451.2656,752.6055 451.1563,752.8086 451.1563,753.0117 C451.1563,753.1992 451.25,753.3711 451.4063,753.4961 C451.5156,753.5898 451.6406,753.6055 451.9531,753.6055 L452.125,753.6055 L452.125,758.1992 L451.9531,758.1992 C451.6563,758.1992 451.5469,758.2148 451.4375,758.293 C451.2656,758.4023 451.1563,758.6055 451.1563,758.8086 C451.1563,758.9961 451.25,759.168 451.4063,759.2773 C451.5,759.3711 451.6719,759.4023 451.9531,759.4023 L457.5938,759.4023 L457.5938,757.5742 C457.5938,757.2773 457.5781,757.168 457.5156,757.0586 C457.3906,756.8867 457.2031,756.7773 457,756.7773 C456.8125,756.7773 456.625,756.8555 456.5156,757.0273 C456.4219,757.1523 456.4063,757.2461 456.4063,757.5742 L456.4063,758.1992 L453.3281,758.1992 L453.3281,756.4805 Z " fill="#000000"/><text fill="#262626" font-family="IBM Plex Sans, Noto Sans, Verdana" font-size="11" lengthAdjust="spacing" textLength="55" x="483" y="759.7104">Managers</text><line style="stroke:#C6C6C6;stroke-width:1.0;" x1="414" x2="577" y1="777.3047" y2="777.3047"/><ellipse cx="424" cy="799.207" fill="none" rx="3" ry="3" style="stroke:#038048;stroke-width:1.0;"/><text fill="#262626" font-family="IBM Plex Sans, Noto Sans, Verdana" font-size="11" lengthAdjust="spacing" textLength="60" x="442" y="801.5151">userId : int</text><text fill="#262626" font-family="IBM Plex Sans, Noto Sans, Verdana" font-size="11" lengthAdjust="spacing" textLength="95" x="442" y="834.3198">jobTitle : varchar</text><text fill="#262626" font-family="IBM Plex Sans, Noto Sans, Verdana" font-size="11" lengthAdjust="spacing" textLength="120" x="442" y="867.1245">department : varchar</text><text fill="#262626" font-family="IBM Plex Sans, Noto Sans, Verdana" font-size="11" lengthAdjust="spacing" textLength="59" x="442" y="899.9292">salary : int</text><line style="stroke:#C6C6C6;stroke-width:1.0;" x1="414" x2="577" y1="916.5234" y2="916.5234"/></g><!--class onsite_agents--><g id="elem_onsite_agents"><rect codeLine="34" fill="url(#g1em704ess4mqp0)" height="190.0234" id="onsite_agents" style="stroke:#C6C6C6;stroke-width:1.0;" width="165" x="7" y="734.5"/><rect fill="url(#g1em704ess4mqp0)" height="42.8047" style="stroke:#C6C6C6;stroke-width:1.0;" width="165" x="7" y="734.5"/><ellipse cx="37.2" cy="755.9023" fill="#ADD1B2" rx="10" ry="10" style="stroke:#181818;stroke-width:1.0;"/><path d="M36.5281,756.4805 L37.5438,756.4805 L37.5438,756.5742 C37.5438,756.8555 37.575,756.9648 37.6375,757.0742 C37.7469,757.2617 37.95,757.3555 38.1531,757.3555 C38.325,757.3555 38.5125,757.2617 38.6219,757.1055 C38.7156,756.9961 38.7313,756.8867 38.7313,756.5742 L38.7313,755.2148 C38.7313,755.1055 38.7313,755.0742 38.7313,754.9648 C38.6688,754.6211 38.4656,754.418 38.1375,754.418 C37.95,754.418 37.7781,754.5117 37.6531,754.668 C37.575,754.7773 37.5438,754.8867 37.5438,755.2148 L37.5438,755.293 L36.5281,755.293 L36.5281,753.6055 L39.3406,753.6055 L39.3406,754.1992 C39.3406,754.4961 39.3563,754.6211 39.4188,754.7148 C39.5438,754.9023 39.7313,755.0117 39.9344,755.0117 C40.1219,755.0117 40.3094,754.918 40.4344,754.7617 C40.5125,754.6367 40.5438,754.543 40.5438,754.1992 L40.5438,752.4023 L35.1531,752.4023 C34.8406,752.4023 34.7469,752.418 34.6375,752.4961 C34.4656,752.6055 34.3563,752.8086 34.3563,753.0117 C34.3563,753.1992 34.45,753.3711 34.6063,753.4961 C34.7156,753.5898 34.8406,753.6055 35.1531,753.6055 L35.325,753.6055 L35.325,758.1992 L35.1531,758.1992 C34.8563,758.1992 34.7469,758.2148 34.6375,758.293 C34.4656,758.4023 34.3563,758.6055 34.3563,758.8086 C34.3563,758.9961 34.45,759.168 34.6063,759.2773 C34.7,759.3711 34.8719,759.4023 35.1531,759.4023 L40.7938,759.4023 L40.7938,757.5742 C40.7938,757.2773 40.7781,757.168 40.7156,757.0586 C40.5906,756.8867 40.4031,756.7773 40.2,756.7773 C40.0125,756.7773 39.825,756.8555 39.7156,757.0273 C39.6219,757.1523 39.6063,757.2461 39.6063,757.5742 L39.6063,758.1992 L36.5281,758.1992 L36.5281,756.4805 Z " fill="#000000"/><text fill="#262626" font-family="IBM Plex Sans, Noto Sans, Verdana" font-size="11" lengthAdjust="spacing" textLength="79" x="63.8" y="759.7104">OnSiteAgents</text><line style="stroke:#C6C6C6;stroke-width:1.0;" x1="8" x2="171" y1="777.3047" y2="777.3047"/><ellipse cx="18" cy="799.207" fill="none" rx="3" ry="3" style="stroke:#038048;stroke-width:1.0;"/><text fill="#262626" font-family="IBM Plex Sans, Noto Sans, Verdana" font-size="11" lengthAdjust="spacing" textLength="60" x="36" y="801.5151">userId : int</text><text fill="#262626" font-family="IBM Plex Sans, Noto Sans, Verdana" font-size="11" lengthAdjust="spacing" textLength="95" x="36" y="834.3198">jobTitle : varchar</text><text fill="#262626" font-family="IBM Plex Sans, Noto Sans, Verdana" font-size="11" lengthAdjust="spacing" textLength="120" x="36" y="867.1245">department : varchar</text><text fill="#262626" font-family="IBM Plex Sans, Noto Sans, Verdana" font-size="11" lengthAdjust="spacing" textLength="59" x="36" y="899.9292">salary : int</text><line style="stroke:#C6C6C6;stroke-width:1.0;" x1="8" x2="171" y1="916.5234" y2="916.5234"/></g><!--class events--><g id="elem_events"><rect codeLine="41" fill="url(#g1em704ess4mqp0)" height="485.2656" id="events" style="stroke:#C6C6C6;stroke-width:1.0;" width="175" x="554" y="7"/><rect fill="url(#g1em704ess4mqp0)" height="42.8047" style="stroke:#C6C6C6;stroke-width:1.0;" width="175" x="554" y="7"/><ellipse cx="608" cy="28.4023" fill="#ADD1B2" rx="10" ry="10" style="stroke:#181818;stroke-width:1.0;"/><path d="M607.3281,28.9805 L608.3438,28.9805 L608.3438,29.0742 C608.3438,29.3555 608.375,29.4648 608.4375,29.5742 C608.5469,29.7617 608.75,29.8555 608.9531,29.8555 C609.125,29.8555 609.3125,29.7617 609.4219,29.6055 C609.5156,29.4961 609.5313,29.3867 609.5313,29.0742 L609.5313,27.7148 C609.5313,27.6055 609.5313,27.5742 609.5313,27.4648 C609.4688,27.1211 609.2656,26.918 608.9375,26.918 C608.75,26.918 608.5781,27.0117 608.4531,27.168 C608.375,27.2773 608.3438,27.3867 608.3438,27.7148 L608.3438,27.793 L607.3281,27.793 L607.3281,26.1055 L610.1406,26.1055 L610.1406,26.6992 C610.1406,26.9961 610.1563,27.1211 610.2188,27.2148 C610.3438,27.4023 610.5313,27.5117 610.7344,27.5117 C610.9219,27.5117 611.1094,27.418 611.2344,27.2617 C611.3125,27.1367 611.3438,27.043 611.3438,26.6992 L611.3438,24.9023 L605.9531,24.9023 C605.6406,24.9023 605.5469,24.918 605.4375,24.9961 C605.2656,25.1055 605.1563,25.3086 605.1563,25.5117 C605.1563,25.6992 605.25,25.8711 605.4063,25.9961 C605.5156,26.0898 605.6406,26.1055 605.9531,26.1055 L606.125,26.1055 L606.125,30.6992 L605.9531,30.6992 C605.6563,30.6992 605.5469,30.7148 605.4375,30.793 C605.2656,30.9023 605.1563,31.1055 605.1563,31.3086 C605.1563,31.4961 605.25,31.668 605.4063,31.7773 C605.5,31.8711 605.6719,31.9023 605.9531,31.9023 L611.5938,31.9023 L611.5938,30.0742 C611.5938,29.7773 611.5781,29.668 611.5156,29.5586 C611.3906,29.3867 611.2031,29.2773 611,29.2773 C610.8125,29.2773 610.625,29.3555 610.5156,29.5273 C610.4219,29.6523 610.4063,29.7461 610.4063,30.0742 L610.4063,30.6992 L607.3281,30.6992 L607.3281,28.9805 Z " fill="#000000"/><text fill="#262626" font-family="IBM Plex Sans, Noto Sans, Verdana" font-size="11" lengthAdjust="spacing" textLength="39" x="637" y="32.2104">Events</text><line style="stroke:#C6C6C6;stroke-width:1.0;" x1="555" x2="728" y1="49.8047" y2="49.8047"/><ellipse cx="565" cy="71.707" fill="none" rx="3" ry="3" style="stroke:#038048;stroke-width:1.0;"/><text fill="#262626" font-family="IBM Plex Sans, Noto Sans, Verdana" font-size="11" lengthAdjust="spacing" textLength="69" x="583" y="74.0151">eventId : int</text><text fill="#262626" font-family="IBM Plex Sans, Noto Sans, Verdana" font-size="11" lengthAdjust="spacing" textLength="86" x="583" y="106.8198">name : varchar</text><text fill="#262626" font-family="IBM Plex Sans, Noto Sans, Verdana" font-size="11" lengthAdjust="spacing" textLength="115" x="583" y="139.6245">description : varchar</text><text fill="#262626" font-family="IBM Plex Sans, Noto Sans, Verdana" font-size="11" lengthAdjust="spacing" textLength="89" x="583" y="172.4292">date : datetime</text><text fill="#262626" font-family="IBM Plex Sans, Noto Sans, Verdana" font-size="11" lengthAdjust="spacing" textLength="63" x="583" y="205.2339">time : time</text><rect fill="none" height="6" style="stroke:#C82930;stroke-width:1.0;" width="6" x="562" y="232.7305"/><text fill="#262626" font-family="IBM Plex Sans, Noto Sans, Verdana" font-size="11" lengthAdjust="spacing" textLength="72" x="583" y="238.0386">venueId : int</text><rect fill="none" height="6" style="stroke:#C82930;stroke-width:1.0;" width="6" x="562" y="265.5352"/><text fill="#262626" font-family="IBM Plex Sans, Noto Sans, Verdana" font-size="11" lengthAdjust="spacing" textLength="87" x="583" y="270.8433">companyId : int</text><rect fill="none" height="6" style="stroke:#C82930;stroke-width:1.0;" width="6" x="562" y="298.3398"/><text fill="#262626" font-family="IBM Plex Sans, Noto Sans, Verdana" font-size="11" lengthAdjust="spacing" textLength="86" x="583" y="303.6479">managerId : int</text><rect fill="none" height="6" style="stroke:#C82930;stroke-width:1.0;" width="6" x="562" y="331.1445"/><text fill="#262626" font-family="IBM Plex Sans, Noto Sans, Verdana" font-size="11" lengthAdjust="spacing" textLength="106" x="583" y="336.4526">onSiteAgentId : int</text><text fill="#262626" font-family="IBM Plex Sans, Noto Sans, Verdana" font-size="11" lengthAdjust="spacing" textLength="126" x="583" y="369.2573">event_state : boolean</text><text fill="#262626" font-family="IBM Plex Sans, Noto Sans, Verdana" font-size="11" lengthAdjust="spacing" textLength="130" x="583" y="402.062">event_attendance : int</text><text fill="#262626" font-family="IBM Plex Sans, Noto Sans, Verdana" font-size="11" lengthAdjust="spacing" textLength="119" x="583" y="434.8667">createdAt : datetime</text><text fill="#262626" font-family="IBM Plex Sans, Noto Sans, Verdana" font-size="11" lengthAdjust="spacing" textLength="122" x="583" y="467.6714">updatedAt : datetime</text><line style="stroke:#C6C6C6;stroke-width:1.0;" x1="555" x2="728" y1="484.2656" y2="484.2656"/></g><!--class event_caterings--><g id="elem_event_caterings"><rect codeLine="57" fill="url(#g1em704ess4mqp0)" height="124.4141" id="event_caterings" style="stroke:#C6C6C6;stroke-width:1.0;" width="137" x="991" y="767.5"/><rect fill="url(#g1em704ess4mqp0)" height="42.8047" style="stroke:#C6C6C6;stroke-width:1.0;" width="137" x="991" y="767.5"/><ellipse cx="1005" cy="788.9023" fill="#ADD1B2" rx="10" ry="10" style="stroke:#181818;stroke-width:1.0;"/><path d="M1004.3281,789.4805 L1005.3438,789.4805 L1005.3438,789.5742 C1005.3438,789.8555 1005.375,789.9648 1005.4375,790.0742 C1005.5469,790.2617 1005.75,790.3555 1005.9531,790.3555 C1006.125,790.3555 1006.3125,790.2617 1006.4219,790.1055 C1006.5156,789.9961 1006.5313,789.8867 1006.5313,789.5742 L1006.5313,788.2148 C1006.5313,788.1055 1006.5313,788.0742 1006.5313,787.9648 C1006.4688,787.6211 1006.2656,787.418 1005.9375,787.418 C1005.75,787.418 1005.5781,787.5117 1005.4531,787.668 C1005.375,787.7773 1005.3438,787.8867 1005.3438,788.2148 L1005.3438,788.293 L1004.3281,788.293 L1004.3281,786.6055 L1007.1406,786.6055 L1007.1406,787.1992 C1007.1406,787.4961 1007.1563,787.6211 1007.2188,787.7148 C1007.3438,787.9023 1007.5313,788.0117 1007.7344,788.0117 C1007.9219,788.0117 1008.1094,787.918 1008.2344,787.7617 C1008.3125,787.6367 1008.3438,787.543 1008.3438,787.1992 L1008.3438,785.4023 L1002.9531,785.4023 C1002.6406,785.4023 1002.5469,785.418 1002.4375,785.4961 C1002.2656,785.6055 1002.1563,785.8086 1002.1563,786.0117 C1002.1563,786.1992 1002.25,786.3711 1002.4063,786.4961 C1002.5156,786.5898 1002.6406,786.6055 1002.9531,786.6055 L1003.125,786.6055 L1003.125,791.1992 L1002.9531,791.1992 C1002.6563,791.1992 1002.5469,791.2148 1002.4375,791.293 C1002.2656,791.4023 1002.1563,791.6055 1002.1563,791.8086 C1002.1563,791.9961 1002.25,792.168 1002.4063,792.2773 C1002.5,792.3711 1002.6719,792.4023 1002.9531,792.4023 L1008.5938,792.4023 L1008.5938,790.5742 C1008.5938,790.2773 1008.5781,790.168 1008.5156,790.0586 C1008.3906,789.8867 1008.2031,789.7773 1008,789.7773 C1007.8125,789.7773 1007.625,789.8555 1007.5156,790.0273 C1007.4219,790.1523 1007.4063,790.2461 1007.4063,790.5742 L1007.4063,791.1992 L1004.3281,791.1992 L1004.3281,789.4805 Z " fill="#000000"/><text fill="#262626" font-family="IBM Plex Sans, Noto Sans, Verdana" font-size="11" lengthAdjust="spacing" textLength="87" x="1028" y="792.7104">EventCaterings</text><line style="stroke:#C6C6C6;stroke-width:1.0;" x1="992" x2="1127" y1="810.3047" y2="810.3047"/><rect fill="none" height="6" style="stroke:#C82930;stroke-width:1.0;" width="6" x="999" y="829.207"/><text fill="#262626" font-family="IBM Plex Sans, Noto Sans, Verdana" font-size="11" lengthAdjust="spacing" textLength="69" x="1020" y="834.5151">eventId : int</text><rect fill="none" height="6" style="stroke:#C82930;stroke-width:1.0;" width="6" x="999" y="862.0117"/><text fill="#262626" font-family="IBM Plex Sans, Noto Sans, Verdana" font-size="11" lengthAdjust="spacing" textLength="64" x="1020" y="867.3198">caterId : int</text><line style="stroke:#C6C6C6;stroke-width:1.0;" x1="992" x2="1127" y1="883.9141" y2="883.9141"/></g><!--class event_productions--><g id="elem_event_productions"><rect codeLine="62" fill="url(#g1em704ess4mqp0)" height="124.4141" id="event_productions" style="stroke:#C6C6C6;stroke-width:1.0;" width="147" x="613" y="767.5"/><rect fill="url(#g1em704ess4mqp0)" height="42.8047" style="stroke:#C6C6C6;stroke-width:1.0;" width="147" x="613" y="767.5"/><ellipse cx="627" cy="788.9023" fill="#ADD1B2" rx="10" ry="10" style="stroke:#181818;stroke-width:1.0;"/><path d="M626.3281,789.4805 L627.3438,789.4805 L627.3438,789.5742 C627.3438,789.8555 627.375,789.9648 627.4375,790.0742 C627.5469,790.2617 627.75,790.3555 627.9531,790.3555 C628.125,790.3555 628.3125,790.2617 628.4219,790.1055 C628.5156,789.9961 628.5313,789.8867 628.5313,789.5742 L628.5313,788.2148 C628.5313,788.1055 628.5313,788.0742 628.5313,787.9648 C628.4688,787.6211 628.2656,787.418 627.9375,787.418 C627.75,787.418 627.5781,787.5117 627.4531,787.668 C627.375,787.7773 627.3438,787.8867 627.3438,788.2148 L627.3438,788.293 L626.3281,788.293 L626.3281,786.6055 L629.1406,786.6055 L629.1406,787.1992 C629.1406,787.4961 629.1563,787.6211 629.2188,787.7148 C629.3438,787.9023 629.5313,788.0117 629.7344,788.0117 C629.9219,788.0117 630.1094,787.918 630.2344,787.7617 C630.3125,787.6367 630.3438,787.543 630.3438,787.1992 L630.3438,785.4023 L624.9531,785.4023 C624.6406,785.4023 624.5469,785.418 624.4375,785.4961 C624.2656,785.6055 624.1563,785.8086 624.1563,786.0117 C624.1563,786.1992 624.25,786.3711 624.4063,786.4961 C624.5156,786.5898 624.6406,786.6055 624.9531,786.6055 L625.125,786.6055 L625.125,791.1992 L624.9531,791.1992 C624.6563,791.1992 624.5469,791.2148 624.4375,791.293 C624.2656,791.4023 624.1563,791.6055 624.1563,791.8086 C624.1563,791.9961 624.25,792.168 624.4063,792.2773 C624.5,792.3711 624.6719,792.4023 624.9531,792.4023 L630.5938,792.4023 L630.5938,790.5742 C630.5938,790.2773 630.5781,790.168 630.5156,790.0586 C630.3906,789.8867 630.2031,789.7773 630,789.7773 C629.8125,789.7773 629.625,789.8555 629.5156,790.0273 C629.4219,790.1523 629.4063,790.2461 629.4063,790.5742 L629.4063,791.1992 L626.3281,791.1992 L626.3281,789.4805 Z " fill="#000000"/><text fill="#262626" font-family="IBM Plex Sans, Noto Sans, Verdana" font-size="11" lengthAdjust="spacing" textLength="97" x="650" y="792.7104">EventProductions</text><line style="stroke:#C6C6C6;stroke-width:1.0;" x1="614" x2="759" y1="810.3047" y2="810.3047"/><rect fill="none" height="6" style="stroke:#C82930;stroke-width:1.0;" width="6" x="621" y="829.207"/><text fill="#262626" font-family="IBM Plex Sans, Noto Sans, Verdana" font-size="11" lengthAdjust="spacing" textLength="69" x="642" y="834.5151">eventId : int</text><rect fill="none" height="6" style="stroke:#C82930;stroke-width:1.0;" width="6" x="621" y="862.0117"/><text fill="#262626" font-family="IBM Plex Sans, Noto Sans, Verdana" font-size="11" lengthAdjust="spacing" textLength="94" x="642" y="867.3198">productionId : int</text><line style="stroke:#C6C6C6;stroke-width:1.0;" x1="614" x2="759" y1="883.9141" y2="883.9141"/></g><!--class caters--><g id="elem_caters"><rect codeLine="67" fill="url(#g1em704ess4mqp0)" height="550.875" id="caters" style="stroke:#C6C6C6;stroke-width:1.0;" width="160" x="979.5" y="1167"/><rect fill="url(#g1em704ess4mqp0)" height="42.8047" style="stroke:#C6C6C6;stroke-width:1.0;" width="160" x="979.5" y="1167"/><ellipse cx="1027" cy="1188.4023" fill="#ADD1B2" rx="10" ry="10" style="stroke:#181818;stroke-width:1.0;"/><path d="M1026.3281,1188.9805 L1027.3438,1188.9805 L1027.3438,1189.0742 C1027.3438,1189.3555 1027.375,1189.4648 1027.4375,1189.5742 C1027.5469,1189.7617 1027.75,1189.8555 1027.9531,1189.8555 C1028.125,1189.8555 1028.3125,1189.7617 1028.4219,1189.6055 C1028.5156,1189.4961 1028.5313,1189.3867 1028.5313,1189.0742 L1028.5313,1187.7148 C1028.5313,1187.6055 1028.5313,1187.5742 1028.5313,1187.4648 C1028.4688,1187.1211 1028.2656,1186.918 1027.9375,1186.918 C1027.75,1186.918 1027.5781,1187.0117 1027.4531,1187.168 C1027.375,1187.2773 1027.3438,1187.3867 1027.3438,1187.7148 L1027.3438,1187.793 L1026.3281,1187.793 L1026.3281,1186.1055 L1029.1406,1186.1055 L1029.1406,1186.6992 C1029.1406,1186.9961 1029.1563,1187.1211 1029.2188,1187.2148 C1029.3438,1187.4023 1029.5313,1187.5117 1029.7344,1187.5117 C1029.9219,1187.5117 1030.1094,1187.418 1030.2344,1187.2617 C1030.3125,1187.1367 1030.3438,1187.043 1030.3438,1186.6992 L1030.3438,1184.9023 L1024.9531,1184.9023 C1024.6406,1184.9023 1024.5469,1184.918 1024.4375,1184.9961 C1024.2656,1185.1055 1024.1563,1185.3086 1024.1563,1185.5117 C1024.1563,1185.6992 1024.25,1185.8711 1024.4063,1185.9961 C1024.5156,1186.0898 1024.6406,1186.1055 1024.9531,1186.1055 L1025.125,1186.1055 L1025.125,1190.6992 L1024.9531,1190.6992 C1024.6563,1190.6992 1024.5469,1190.7148 1024.4375,1190.793 C1024.2656,1190.9023 1024.1563,1191.1055 1024.1563,1191.3086 C1024.1563,1191.4961 1024.25,1191.668 1024.4063,1191.7773 C1024.5,1191.8711 1024.6719,1191.9023 1024.9531,1191.9023 L1030.5938,1191.9023 L1030.5938,1190.0742 C1030.5938,1189.7773 1030.5781,1189.668 1030.5156,1189.5586 C1030.3906,1189.3867 1030.2031,1189.2773 1030,1189.2773 C1029.8125,1189.2773 1029.625,1189.3555 1029.5156,1189.5273 C1029.4219,1189.6523 1029.4063,1189.7461 1029.4063,1190.0742 L1029.4063,1190.6992 L1026.3281,1190.6992 L1026.3281,1188.9805 Z " fill="#000000"/><text fill="#262626" font-family="IBM Plex Sans, Noto Sans, Verdana" font-size="11" lengthAdjust="spacing" textLength="37" x="1056" y="1192.2104">Caters</text><line style="stroke:#C6C6C6;stroke-width:1.0;" x1="980.5" x2="1138.5" y1="1209.8047" y2="1209.8047"/><ellipse cx="990.5" cy="1231.707" fill="none" rx="3" ry="3" style="stroke:#038048;stroke-width:1.0;"/><text fill="#262626" font-family="IBM Plex Sans, Noto Sans, Verdana" font-size="11" lengthAdjust="spacing" textLength="64" x="1008.5" y="1234.0151">caterId : int</text><text fill="#262626" font-family="IBM Plex Sans, Noto Sans, Verdana" font-size="11" lengthAdjust="spacing" textLength="86" x="1008.5" y="1266.8198">name : varchar</text><text fill="#262626" font-family="IBM Plex Sans, Noto Sans, Verdana" font-size="11" lengthAdjust="spacing" textLength="98" x="1008.5" y="1299.6245">address : varchar</text><text fill="#262626" font-family="IBM Plex Sans, Noto Sans, Verdana" font-size="11" lengthAdjust="spacing" textLength="73" x="1008.5" y="1332.4292">city : varchar</text><text fill="#262626" font-family="IBM Plex Sans, Noto Sans, Verdana" font-size="11" lengthAdjust="spacing" textLength="82" x="1008.5" y="1365.2339">state : varchar</text><text fill="#262626" font-family="IBM Plex Sans, Noto Sans, Verdana" font-size="11" lengthAdjust="spacing" textLength="70" x="1008.5" y="1398.0386">zip : varchar</text><text fill="#262626" font-family="IBM Plex Sans, Noto Sans, Verdana" font-size="11" lengthAdjust="spacing" textLength="85" x="1008.5" y="1430.8433">email : varchar</text><text fill="#262626" font-family="IBM Plex Sans, Noto Sans, Verdana" font-size="11" lengthAdjust="spacing" textLength="89" x="1008.5" y="1463.6479">phone : varchar</text><text fill="#262626" font-family="IBM Plex Sans, Noto Sans, Verdana" font-size="11" lengthAdjust="spacing" textLength="114" x="1008.5" y="1496.4526">availability : varchar</text><text fill="#262626" font-family="IBM Plex Sans, Noto Sans, Verdana" font-size="11" lengthAdjust="spacing" textLength="115" x="1008.5" y="1529.2573">description : varchar</text><text fill="#262626" font-family="IBM Plex Sans, Noto Sans, Verdana" font-size="11" lengthAdjust="spacing" textLength="79" x="1008.5" y="1562.062">type : varchar</text><text fill="#262626" font-family="IBM Plex Sans, Noto Sans, Verdana" font-size="11" lengthAdjust="spacing" textLength="86" x="1008.5" y="1594.8667">menu : varchar</text><text fill="#262626" font-family="IBM Plex Sans, Noto Sans, Verdana" font-size="11" lengthAdjust="spacing" textLength="109" x="1008.5" y="1627.6714">pricePerPerson : int</text><text fill="#262626" font-family="IBM Plex Sans, Noto Sans, Verdana" font-size="11" lengthAdjust="spacing" textLength="81" x="1008.5" y="1660.4761">diets : varchar</text><text fill="#262626" font-family="IBM Plex Sans, Noto Sans, Verdana" font-size="11" lengthAdjust="spacing" textLength="86" x="1008.5" y="1693.2808">alcohol : tinyint</text><line style="stroke:#C6C6C6;stroke-width:1.0;" x1="980.5" x2="1138.5" y1="1709.875" y2="1709.875"/></g><!--class productions--><g id="elem_productions"><rect codeLine="85" fill="url(#g1em704ess4mqp0)" height="419.6563" id="productions" style="stroke:#C6C6C6;stroke-width:1.0;" width="167" x="603" y="1232.5"/><rect fill="url(#g1em704ess4mqp0)" height="42.8047" style="stroke:#C6C6C6;stroke-width:1.0;" width="167" x="603" y="1232.5"/><ellipse cx="640.85" cy="1253.9023" fill="#ADD1B2" rx="10" ry="10" style="stroke:#181818;stroke-width:1.0;"/><path d="M640.1781,1254.4805 L641.1938,1254.4805 L641.1938,1254.5742 C641.1938,1254.8555 641.225,1254.9648 641.2875,1255.0742 C641.3969,1255.2617 641.6,1255.3555 641.8031,1255.3555 C641.975,1255.3555 642.1625,1255.2617 642.2719,1255.1055 C642.3656,1254.9961 642.3813,1254.8867 642.3813,1254.5742 L642.3813,1253.2148 C642.3813,1253.1055 642.3813,1253.0742 642.3813,1252.9648 C642.3188,1252.6211 642.1156,1252.418 641.7875,1252.418 C641.6,1252.418 641.4281,1252.5117 641.3031,1252.668 C641.225,1252.7773 641.1938,1252.8867 641.1938,1253.2148 L641.1938,1253.293 L640.1781,1253.293 L640.1781,1251.6055 L642.9906,1251.6055 L642.9906,1252.1992 C642.9906,1252.4961 643.0063,1252.6211 643.0688,1252.7148 C643.1938,1252.9023 643.3813,1253.0117 643.5844,1253.0117 C643.7719,1253.0117 643.9594,1252.918 644.0844,1252.7617 C644.1625,1252.6367 644.1938,1252.543 644.1938,1252.1992 L644.1938,1250.4023 L638.8031,1250.4023 C638.4906,1250.4023 638.3969,1250.418 638.2875,1250.4961 C638.1156,1250.6055 638.0063,1250.8086 638.0063,1251.0117 C638.0063,1251.1992 638.1,1251.3711 638.2563,1251.4961 C638.3656,1251.5898 638.4906,1251.6055 638.8031,1251.6055 L638.975,1251.6055 L638.975,1256.1992 L638.8031,1256.1992 C638.5063,1256.1992 638.3969,1256.2148 638.2875,1256.293 C638.1156,1256.4023 638.0063,1256.6055 638.0063,1256.8086 C638.0063,1256.9961 638.1,1257.168 638.2563,1257.2773 C638.35,1257.3711 638.5219,1257.4023 638.8031,1257.4023 L644.4438,1257.4023 L644.4438,1255.5742 C644.4438,1255.2773 644.4281,1255.168 644.3656,1255.0586 C644.2406,1254.8867 644.0531,1254.7773 643.85,1254.7773 C643.6625,1254.7773 643.475,1254.8555 643.3656,1255.0273 C643.2719,1255.1523 643.2563,1255.2461 643.2563,1255.5742 L643.2563,1256.1992 L640.1781,1256.1992 L640.1781,1254.4805 Z " fill="#000000"/><text fill="#262626" font-family="IBM Plex Sans, Noto Sans, Verdana" font-size="11" lengthAdjust="spacing" textLength="64" x="669.15" y="1257.7104">Productions</text><line style="stroke:#C6C6C6;stroke-width:1.0;" x1="604" x2="769" y1="1275.3047" y2="1275.3047"/><ellipse cx="614" cy="1297.207" fill="none" rx="3" ry="3" style="stroke:#038048;stroke-width:1.0;"/><text fill="#262626" font-family="IBM Plex Sans, Noto Sans, Verdana" font-size="11" lengthAdjust="spacing" textLength="94" x="632" y="1299.5151">productionId : int</text><text fill="#262626" font-family="IBM Plex Sans, Noto Sans, Verdana" font-size="11" lengthAdjust="spacing" textLength="86" x="632" y="1332.3198">name : varchar</text><text fill="#262626" font-family="IBM Plex Sans, Noto Sans, Verdana" font-size="11" lengthAdjust="spacing" textLength="115" x="632" y="1365.1245">description : varchar</text><text fill="#262626" font-family="IBM Plex Sans, Noto Sans, Verdana" font-size="11" lengthAdjust="spacing" textLength="77" x="632" y="1397.9292">audio : tinyint</text><text fill="#262626" font-family="IBM Plex Sans, Noto Sans, Verdana" font-size="11" lengthAdjust="spacing" textLength="87" x="632" y="1430.7339">lighting : tinyint</text><text fill="#262626" font-family="IBM Plex Sans, Noto Sans, Verdana" font-size="11" lengthAdjust="spacing" textLength="78" x="632" y="1463.5386">video : tinyint</text><text fill="#262626" font-family="IBM Plex Sans, Noto Sans, Verdana" font-size="11" lengthAdjust="spacing" textLength="98" x="632" y="1496.3433">electrical : tinyint</text><text fill="#262626" font-family="IBM Plex Sans, Noto Sans, Verdana" font-size="11" lengthAdjust="spacing" textLength="114" x="632" y="1529.1479">availability : varchar</text><text fill="#262626" font-family="IBM Plex Sans, Noto Sans, Verdana" font-size="11" lengthAdjust="spacing" textLength="94" x="632" y="1561.9526">pricePerDay : int</text><text fill="#262626" font-family="IBM Plex Sans, Noto Sans, Verdana" font-size="11" lengthAdjust="spacing" textLength="119" x="632" y="1594.7573">createdAt : datetime</text><text fill="#262626" font-family="IBM Plex Sans, Noto Sans, Verdana" font-size="11" lengthAdjust="spacing" textLength="122" x="632" y="1627.562">updatedAt : datetime</text><line style="stroke:#C6C6C6;stroke-width:1.0;" x1="604" x2="769" y1="1644.1563" y2="1644.1563"/></g><!--class venues--><g id="elem_venues"><rect codeLine="99" fill="url(#g1em704ess4mqp0)" height="485.2656" id="venues" style="stroke:#C6C6C6;stroke-width:1.0;" width="160" x="795.5" y="587"/><rect fill="url(#g1em704ess4mqp0)" height="42.8047" style="stroke:#C6C6C6;stroke-width:1.0;" width="160" x="795.5" y="587"/><ellipse cx="839.5" cy="608.4023" fill="#ADD1B2" rx="10" ry="10" style="stroke:#181818;stroke-width:1.0;"/><path d="M838.8281,608.9805 L839.8438,608.9805 L839.8438,609.0742 C839.8438,609.3555 839.875,609.4648 839.9375,609.5742 C840.0469,609.7617 840.25,609.8555 840.4531,609.8555 C840.625,609.8555 840.8125,609.7617 840.9219,609.6055 C841.0156,609.4961 841.0313,609.3867 841.0313,609.0742 L841.0313,607.7148 C841.0313,607.6055 841.0313,607.5742 841.0313,607.4648 C840.9688,607.1211 840.7656,606.918 840.4375,606.918 C840.25,606.918 840.0781,607.0117 839.9531,607.168 C839.875,607.2773 839.8438,607.3867 839.8438,607.7148 L839.8438,607.793 L838.8281,607.793 L838.8281,606.1055 L841.6406,606.1055 L841.6406,606.6992 C841.6406,606.9961 841.6563,607.1211 841.7188,607.2148 C841.8438,607.4023 842.0313,607.5117 842.2344,607.5117 C842.4219,607.5117 842.6094,607.418 842.7344,607.2617 C842.8125,607.1367 842.8438,607.043 842.8438,606.6992 L842.8438,604.9023 L837.4531,604.9023 C837.1406,604.9023 837.0469,604.918 836.9375,604.9961 C836.7656,605.1055 836.6563,605.3086 836.6563,605.5117 C836.6563,605.6992 836.75,605.8711 836.9063,605.9961 C837.0156,606.0898 837.1406,606.1055 837.4531,606.1055 L837.625,606.1055 L837.625,610.6992 L837.4531,610.6992 C837.1563,610.6992 837.0469,610.7148 836.9375,610.793 C836.7656,610.9023 836.6563,611.1055 836.6563,611.3086 C836.6563,611.4961 836.75,611.668 836.9063,611.7773 C837,611.8711 837.1719,611.9023 837.4531,611.9023 L843.0938,611.9023 L843.0938,610.0742 C843.0938,609.7773 843.0781,609.668 843.0156,609.5586 C842.8906,609.3867 842.7031,609.2773 842.5,609.2773 C842.3125,609.2773 842.125,609.3555 842.0156,609.5273 C841.9219,609.6523 841.9063,609.7461 841.9063,610.0742 L841.9063,610.6992 L838.8281,610.6992 L838.8281,608.9805 Z " fill="#000000"/><text fill="#262626" font-family="IBM Plex Sans, Noto Sans, Verdana" font-size="11" lengthAdjust="spacing" textLength="44" x="868.5" y="612.2104">Venues</text><line style="stroke:#C6C6C6;stroke-width:1.0;" x1="796.5" x2="954.5" y1="629.8047" y2="629.8047"/><ellipse cx="806.5" cy="651.707" fill="none" rx="3" ry="3" style="stroke:#038048;stroke-width:1.0;"/><text fill="#262626" font-family="IBM Plex Sans, Noto Sans, Verdana" font-size="11" lengthAdjust="spacing" textLength="72" x="824.5" y="654.0151">venueId : int</text><text fill="#262626" font-family="IBM Plex Sans, Noto Sans, Verdana" font-size="11" lengthAdjust="spacing" textLength="86" x="824.5" y="686.8198">name : varchar</text><text fill="#262626" font-family="IBM Plex Sans, Noto Sans, Verdana" font-size="11" lengthAdjust="spacing" textLength="98" x="824.5" y="719.6245">address : varchar</text><text fill="#262626" font-family="IBM Plex Sans, Noto Sans, Verdana" font-size="11" lengthAdjust="spacing" textLength="73" x="824.5" y="752.4292">city : varchar</text><text fill="#262626" font-family="IBM Plex Sans, Noto Sans, Verdana" font-size="11" lengthAdjust="spacing" textLength="82" x="824.5" y="785.2339">state : varchar</text><text fill="#262626" font-family="IBM Plex Sans, Noto Sans, Verdana" font-size="11" lengthAdjust="spacing" textLength="70" x="824.5" y="818.0386">zip : varchar</text><text fill="#262626" font-family="IBM Plex Sans, Noto Sans, Verdana" font-size="11" lengthAdjust="spacing" textLength="85" x="824.5" y="850.8433">email : varchar</text><text fill="#262626" font-family="IBM Plex Sans, Noto Sans, Verdana" font-size="11" lengthAdjust="spacing" textLength="89" x="824.5" y="883.6479">phone : varchar</text><text fill="#262626" font-family="IBM Plex Sans, Noto Sans, Verdana" font-size="11" lengthAdjust="spacing" textLength="72" x="824.5" y="916.4526">capacity : int</text><text fill="#262626" font-family="IBM Plex Sans, Noto Sans, Verdana" font-size="11" lengthAdjust="spacing" textLength="94" x="824.5" y="949.2573">pricePerDay : int</text><text fill="#262626" font-family="IBM Plex Sans, Noto Sans, Verdana" font-size="11" lengthAdjust="spacing" textLength="114" x="824.5" y="982.062">availability : varchar</text><text fill="#262626" font-family="IBM Plex Sans, Noto Sans, Verdana" font-size="11" lengthAdjust="spacing" textLength="115" x="824.5" y="1014.8667">description : varchar</text><text fill="#262626" font-family="IBM Plex Sans, Noto Sans, Verdana" font-size="11" lengthAdjust="spacing" textLength="79" x="824.5" y="1047.6714">type : varchar</text><line style="stroke:#C6C6C6;stroke-width:1.0;" x1="796.5" x2="954.5" y1="1064.2656" y2="1064.2656"/></g><!--link users to companies--><g id="link_users_companies"><path codeLine="115" d="M234.257,492.06 C235.07,514.05 236.427,535.95 238.5,557 C245.012,623.12 260.239,697.01 272.869,750.988 " fill="none" id="users-companies" style="stroke:#C6C6C6;stroke-width:1.0;"/><text fill="#262626" font-family="IBM Plex Sans, Noto Sans, Verdana" font-size="12" lengthAdjust="spacing" textLength="27" x="249.5" y="544.1387">1 - 1</text></g><!--link users to managers--><g id="link_users_managers"><path codeLine="116" d="M325.075,406.23 C344.132,443.74 363.699,483.98 380.5,522 C411.395,591.92 441.57,672.97 463.254,734.163 " fill="none" id="users-managers" style="stroke:#C6C6C6;stroke-width:1.0;"/><text fill="#262626" font-family="IBM Plex Sans, Noto Sans, Verdana" font-size="12" lengthAdjust="spacing" textLength="27" x="406.5" y="544.1387">1 - 1</text></g><!--link users to onsite_agents--><g id="link_users_onsite_agents"><path codeLine="117" d="M177.919,492.28 C155.466,577.66 131.527,668.69 114.228,734.469 " fill="none" id="users-onsite_agents" style="stroke:#C6C6C6;stroke-width:1.0;"/><text fill="#262626" font-family="IBM Plex Sans, Noto Sans, Verdana" font-size="12" lengthAdjust="spacing" textLength="27" x="181.5" y="544.1387">1 - 1</text></g><!--link events to companies--><g id="link_events_companies"><path codeLine="118" d="M553.888,428.32 C525.81,473.94 491.674,520.41 452.5,557 C431.58,576.54 414.903,565.95 395.5,587 C353.021,633.08 326.46,699.33 310.972,750.79 " fill="none" id="events-companies" style="stroke:#C6C6C6;stroke-width:1.0;"/><text fill="#262626" font-family="IBM Plex Sans, Noto Sans, Verdana" font-size="12" lengthAdjust="spacing" textLength="27" x="491.5" y="544.1387">1 - *</text></g><!--link events to managers--><g id="link_events_managers"><path codeLine="119" d="M580.429,492.28 C558.862,577.66 535.868,668.69 519.252,734.469 " fill="none" id="events-managers" style="stroke:#C6C6C6;stroke-width:1.0;"/><text fill="#262626" font-family="IBM Plex Sans, Noto Sans, Verdana" font-size="12" lengthAdjust="spacing" textLength="27" x="584.5" y="544.1387">1 - *</text></g><!--link events to onsite_agents--><g id="link_events_onsite_agents"><path codeLine="120" d="M553.949,320.33 C488.617,373.59 398.139,449.85 323.5,522 C308.345,536.65 309.379,545.84 291.5,557 C251.417,582.02 224.645,555.41 189.5,587 C146.974,625.22 122.084,684.32 107.773,734.489 " fill="none" id="events-onsite_agents" style="stroke:#C6C6C6;stroke-width:1.0;"/><text fill="#262626" font-family="IBM Plex Sans, Noto Sans, Verdana" font-size="12" lengthAdjust="spacing" textLength="27" x="334.5" y="544.1387">1 - *</text></g><!--link events to venues--><g id="link_events_venues"><path codeLine="121" d="M729.132,466.96 C750.865,520.64 774.043,577.89 795.395,630.63 " fill="none" id="events-venues" style="stroke:#C6C6C6;stroke-width:1.0;"/><text fill="#262626" font-family="IBM Plex Sans, Noto Sans, Verdana" font-size="12" lengthAdjust="spacing" textLength="27" x="777.5" y="544.1387">1 - *</text></g><!--link events to event_caterings--><g id="link_events_event_caterings"><path codeLine="122" d="M729.264,320.29 C803.274,383.17 907.415,481.68 973.5,587 C1008.92,643.45 1032.33,716.5 1045.66,767.405 " fill="none" id="events-event_caterings" style="stroke:#C6C6C6;stroke-width:1.0;"/><text fill="#262626" font-family="IBM Plex Sans, Noto Sans, Verdana" font-size="12" lengthAdjust="spacing" textLength="27" x="963.5" y="544.1387">1 - 1</text></g><!--link events to event_productions--><g id="link_events_event_productions"><path codeLine="123" d="M660.323,492.28 C668.163,592.97 676.614,701.52 681.731,767.247 " fill="none" id="events-event_productions" style="stroke:#C6C6C6;stroke-width:1.0;"/><text fill="#262626" font-family="IBM Plex Sans, Noto Sans, Verdana" font-size="12" lengthAdjust="spacing" textLength="27" x="676.5" y="544.1387">1 - 1</text></g><!--link event_caterings to caters--><g id="link_event_caterings_caters"><path codeLine="124" d="M1059.5,891.6 C1059.5,956.581 1059.5,1063.954 1059.5,1166.658 " fill="none" id="event_caterings-caters" style="stroke:#C6C6C6;stroke-width:1.0;"/><text fill="#262626" font-family="IBM Plex Sans, Noto Sans, Verdana" font-size="12" lengthAdjust="spacing" textLength="27" x="1070.5" y="1124.1387">1 - 1</text></g><!--link event_productions to productions--><g id="link_event_productions_productions"><path codeLine="125" d="M686.5,891.6 C686.5,970.635 686.5,1112.382 686.5,1232.165 " fill="none" id="event_productions-productions" style="stroke:#C6C6C6;stroke-width:1.0;"/><text fill="#262626" font-family="IBM Plex Sans, Noto Sans, Verdana" font-size="12" lengthAdjust="spacing" textLength="27" x="697.5" y="1124.1387">1 - 1</text></g><!--SRC=[lLLBQnin4Bxlhr3SIz9q3xcQ431f0ZcK1fhsQiRIPAsoAmcjrisszBzNqhvcvGs4kjGOCyzldXgVkJrMo3ZOdLPvOQ7DpWG-IuNCmQx4yvSBnakeQ_R2hg_P-TE7T_Vt6_-vO3Steoag9rsRsju5ss0TRRFEYAs-rcZh5OEQDO5YlxBBG3m8jcPIkImm2dnIQtO0o_TWCwn0beGtFiWFRGKHMLrIZmJ0xBMYF0XXqISwINZ8RM9h1uuw_9IcJuzRz2gnSPuNddAomgmnubZuUwhvLbS6bCIkRZvmHxKRQ2llyw2UDGakbMXgPsb-1FiJA2Y6bbOzSuJyNU-Uf9lrIA01wq8yMZYK42C59nBbi_eY7MuAptUHjAgzO0jHyi_3tHt6G7WO8aHg396CM63DhJHEQaMbtHZ7cOGVpqSwzt0DZdXvDvPs4lJDd0HwQi8eZ4bjXttPQR-7e7efE8TAWE9uolB4NjnwXPMg83tPya7ccvFFcvD7tSYcQ8zMYuQ7Nb4yCqaN42Vj4cpChr_lI8Q1pPD81lQNR_3Lcv0-yOFNmqwMSz3bDN6jeRv-IHiARIN7HxJ-MqUtK8sGw6ZoK7AzrsLSBjKctKdxFU_qvK9htxJTq0YfISHI5djF5qHqa0Af2PR8dQy7QAQlz6ge-oEqf-plj_3CkhhZYuibpz_U_rqD3WPwm7XqZyeyPNTyuTt_MfwJGxzcgokMiwlLf1nFzO9kVbmdW_uMBa6_fzeKUwPS19zPz6DQKgMNPoctuskIM17_K4ftBr8Rwk-j5k7-0000]--></g></svg>