<?xml version="1.0" encoding="us-ascii" standalone="no"?><svg xmlns="http://www.w3.org/2000/svg" xmlns:xlink="http://www.w3.org/1999/xlink" contentStyleType="text/css" height="913px" preserveAspectRatio="none" style="width:1304px;height:913px;" version="1.1" viewBox="0 0 1304 913" width="1304px" zoomAndPan="magnify"><defs><linearGradient id="gu2j0ezhc1cyb0" x1="50%" x2="50%" y1="0%" y2="100%"><stop offset="0%" stop-color="#F4F4F4"/><stop offset="100%" stop-color="#F4F4F4"/></linearGradient></defs><g><line style="stroke:#C6C6C6;stroke-width:0.5;stroke-dasharray:5.0,5.0;" x1="44" x2="44" y1="98.9688" y2="814.5313"/><line style="stroke:#C6C6C6;stroke-width:0.5;stroke-dasharray:5.0,5.0;" x1="273" x2="273" y1="98.9688" y2="814.5313"/><line style="stroke:#C6C6C6;stroke-width:0.5;stroke-dasharray:5.0,5.0;" x1="448" x2="448" y1="98.9688" y2="814.5313"/><line style="stroke:#C6C6C6;stroke-width:0.5;stroke-dasharray:5.0,5.0;" x1="662" x2="662" y1="98.9688" y2="814.5313"/><line style="stroke:#C6C6C6;stroke-width:0.5;stroke-dasharray:5.0,5.0;" x1="896" x2="896" y1="98.9688" y2="814.5313"/><line style="stroke:#C6C6C6;stroke-width:0.5;stroke-dasharray:5.0,5.0;" x1="1128" x2="1128" y1="98.9688" y2="814.5313"/><text fill="#262626" font-family="IBM Plex Sans, Noto Sans, Verdana" font-size="12" lengthAdjust="spacing" textLength="52" x="15" y="86.1387">Manager</text><ellipse cx="44" cy="13.5" fill="url(#gu2j0ezhc1cyb0)" rx="8" ry="8" style="stroke:#C6C6C6;stroke-width:0.5;"/><path d="M44,21.5 L44,48.5 M31,29.5 L57,29.5 M44,48.5 L31,63.5 M44,48.5 L57,63.5 " fill="none" style="stroke:#C6C6C6;stroke-width:0.5;"/><text fill="#262626" font-family="IBM Plex Sans, Noto Sans, Verdana" font-size="12" lengthAdjust="spacing" textLength="52" x="15" y="834.6699">Manager</text><ellipse cx="44" cy="856" fill="url(#gu2j0ezhc1cyb0)" rx="8" ry="8" style="stroke:#C6C6C6;stroke-width:0.5;"/><path d="M44,864 L44,891 M31,872 L57,872 M44,891 L31,906 M44,891 L57,906 " fill="none" style="stroke:#C6C6C6;stroke-width:0.5;"/><rect fill="url(#gu2j0ezhc1cyb0)" height="47.9688" style="stroke:#C6C6C6;stroke-width:0.5;" width="66" x="240" y="50"/><text fill="#262626" font-family="IBM Plex Sans, Noto Sans, Verdana" font-size="12" lengthAdjust="spacing" textLength="32" x="257" y="78.1387">Login</text><rect fill="url(#gu2j0ezhc1cyb0)" height="47.9688" style="stroke:#C6C6C6;stroke-width:0.5;" width="66" x="240" y="813.5313"/><text fill="#262626" font-family="IBM Plex Sans, Noto Sans, Verdana" font-size="12" lengthAdjust="spacing" textLength="32" x="257" y="841.6699">Login</text><rect fill="url(#gu2j0ezhc1cyb0)" height="47.9688" style="stroke:#C6C6C6;stroke-width:0.5;" width="144" x="376" y="50"/><text fill="#262626" font-family="IBM Plex Sans, Noto Sans, Verdana" font-size="12" lengthAdjust="spacing" textLength="110" x="393" y="78.1387">ClientManagement</text><rect fill="url(#gu2j0ezhc1cyb0)" height="47.9688" style="stroke:#C6C6C6;stroke-width:0.5;" width="144" x="376" y="813.5313"/><text fill="#262626" font-family="IBM Plex Sans, Noto Sans, Verdana" font-size="12" lengthAdjust="spacing" textLength="110" x="393" y="841.6699">ClientManagement</text><rect fill="url(#gu2j0ezhc1cyb0)" height="47.9688" style="stroke:#C6C6C6;stroke-width:0.5;" width="144" x="590" y="50"/><text fill="#262626" font-family="IBM Plex Sans, Noto Sans, Verdana" font-size="12" lengthAdjust="spacing" textLength="110" x="607" y="78.1387">EventManagement</text><rect fill="url(#gu2j0ezhc1cyb0)" height="47.9688" style="stroke:#C6C6C6;stroke-width:0.5;" width="144" x="590" y="813.5313"/><text fill="#262626" font-family="IBM Plex Sans, Noto Sans, Verdana" font-size="12" lengthAdjust="spacing" textLength="110" x="607" y="841.6699">EventManagement</text><rect fill="url(#gu2j0ezhc1cyb0)" height="47.9688" style="stroke:#C6C6C6;stroke-width:0.5;" width="185" x="804" y="50"/><text fill="#262626" font-family="IBM Plex Sans, Noto Sans, Verdana" font-size="12" lengthAdjust="spacing" textLength="151" x="821" y="78.1387">OnsiteAgentManagement</text><rect fill="url(#gu2j0ezhc1cyb0)" height="47.9688" style="stroke:#C6C6C6;stroke-width:0.5;" width="185" x="804" y="813.5313"/><text fill="#262626" font-family="IBM Plex Sans, Noto Sans, Verdana" font-size="12" lengthAdjust="spacing" textLength="151" x="821" y="841.6699">OnsiteAgentManagement</text><rect fill="url(#gu2j0ezhc1cyb0)" height="47.9688" style="stroke:#C6C6C6;stroke-width:0.5;" width="138" x="1059" y="50"/><text fill="#262626" font-family="IBM Plex Sans, Noto Sans, Verdana" font-size="12" lengthAdjust="spacing" textLength="104" x="1076" y="78.1387">EventSupervision</text><rect fill="url(#gu2j0ezhc1cyb0)" height="47.9688" style="stroke:#C6C6C6;stroke-width:0.5;" width="138" x="1059" y="813.5313"/><text fill="#262626" font-family="IBM Plex Sans, Noto Sans, Verdana" font-size="12" lengthAdjust="spacing" textLength="104" x="1076" y="841.6699">EventSupervision</text><polygon fill="#C6C6C6" points="261,144.9375,271,148.9375,261,152.9375,265,148.9375" style="stroke:#C6C6C6;stroke-width:1.0;"/><line style="stroke:#C6C6C6;stroke-width:1.0;" x1="44" x2="267" y1="148.9375" y2="148.9375"/><text fill="#262626" font-family="IBM Plex Sans, Noto Sans, Verdana" font-size="12" lengthAdjust="spacing" textLength="185" x="61" y="134.1074">Enter username and password</text><polygon fill="#C6C6C6" points="55,192.9063,45,196.9063,55,200.9063,51,196.9063" style="stroke:#C6C6C6;stroke-width:1.0;"/><line style="stroke:#C6C6C6;stroke-width:1.0;stroke-dasharray:2.0,2.0;" x1="49" x2="272" y1="196.9063" y2="196.9063"/><text fill="#262626" font-family="IBM Plex Sans, Noto Sans, Verdana" font-size="12" lengthAdjust="spacing" textLength="131" x="71" y="182.0762">Authenticate manager</text><polygon fill="#C6C6C6" points="436,240.875,446,244.875,436,248.875,440,244.875" style="stroke:#C6C6C6;stroke-width:1.0;"/><line style="stroke:#C6C6C6;stroke-width:1.0;" x1="44" x2="442" y1="244.875" y2="244.875"/><text fill="#262626" font-family="IBM Plex Sans, Noto Sans, Verdana" font-size="12" lengthAdjust="spacing" textLength="91" x="61" y="230.0449">Manage Clients</text><polygon fill="#C6C6C6" points="55,288.8438,45,292.8438,55,296.8438,51,292.8438" style="stroke:#C6C6C6;stroke-width:1.0;"/><line style="stroke:#C6C6C6;stroke-width:1.0;stroke-dasharray:2.0,2.0;" x1="49" x2="447" y1="292.8438" y2="292.8438"/><text fill="#262626" font-family="IBM Plex Sans, Noto Sans, Verdana" font-size="12" lengthAdjust="spacing" textLength="163" x="71" y="278.0137">View/Edit Client Information</text><path d="M356,305.8438 L356,348.8438 L540,348.8438 L540,315.8438 L530,305.8438 L356,305.8438 " fill="#FFFFFF" style="stroke:#262626;stroke-width:1.0;"/><path d="M530,305.8438 L530,315.8438 L540,315.8438 L530,305.8438 " fill="#FFFFFF" style="stroke:#262626;stroke-width:1.0;"/><text fill="#262626" font-family="IBM Plex Sans, Noto Sans, Verdana" font-size="12" lengthAdjust="spacing" textLength="143" x="372" y="331.9824">Manage Client Accounts</text><polygon fill="#C6C6C6" points="650,390.7813,660,394.7813,650,398.7813,654,394.7813" style="stroke:#C6C6C6;stroke-width:1.0;"/><line style="stroke:#C6C6C6;stroke-width:1.0;" x1="44" x2="656" y1="394.7813" y2="394.7813"/><text fill="#262626" font-family="IBM Plex Sans, Noto Sans, Verdana" font-size="12" lengthAdjust="spacing" textLength="91" x="61" y="379.9512">Manage Events</text><polygon fill="#C6C6C6" points="55,438.75,45,442.75,55,446.75,51,442.75" style="stroke:#C6C6C6;stroke-width:1.0;"/><line style="stroke:#C6C6C6;stroke-width:1.0;stroke-dasharray:2.0,2.0;" x1="49" x2="661" y1="442.75" y2="442.75"/><text fill="#262626" font-family="IBM Plex Sans, Noto Sans, Verdana" font-size="12" lengthAdjust="spacing" textLength="137" x="71" y="427.9199">View/Edit Event Details</text><path d="M563,455.75 L563,498.75 L760,498.75 L760,465.75 L750,455.75 L563,455.75 " fill="#FFFFFF" style="stroke:#262626;stroke-width:1.0;"/><path d="M750,455.75 L750,465.75 L760,465.75 L750,455.75 " fill="#FFFFFF" style="stroke:#262626;stroke-width:1.0;"/><text fill="#262626" font-family="IBM Plex Sans, Noto Sans, Verdana" font-size="12" lengthAdjust="spacing" textLength="156" x="579" y="481.8887">Supervise Event Progress</text><polygon fill="#C6C6C6" points="884.5,540.6875,894.5,544.6875,884.5,548.6875,888.5,544.6875" style="stroke:#C6C6C6;stroke-width:1.0;"/><line style="stroke:#C6C6C6;stroke-width:1.0;" x1="44" x2="890.5" y1="544.6875" y2="544.6875"/><text fill="#262626" font-family="IBM Plex Sans, Noto Sans, Verdana" font-size="12" lengthAdjust="spacing" textLength="136" x="61" y="529.8574">Manage Onsite Agents</text><polygon fill="#C6C6C6" points="55,588.6563,45,592.6563,55,596.6563,51,592.6563" style="stroke:#C6C6C6;stroke-width:1.0;"/><line style="stroke:#C6C6C6;stroke-width:1.0;stroke-dasharray:2.0,2.0;" x1="49" x2="895.5" y1="592.6563" y2="592.6563"/><text fill="#262626" font-family="IBM Plex Sans, Noto Sans, Verdana" font-size="12" lengthAdjust="spacing" textLength="182" x="71" y="577.8262">Assign/Remove Onsite Agents</text><path d="M768,605.6563 L768,648.6563 L1025,648.6563 L1025,615.6563 L1015,605.6563 L768,605.6563 " fill="#FFFFFF" style="stroke:#262626;stroke-width:1.0;"/><path d="M1015,605.6563 L1015,615.6563 L1025,615.6563 L1015,605.6563 " fill="#FFFFFF" style="stroke:#262626;stroke-width:1.0;"/><text fill="#262626" font-family="IBM Plex Sans, Noto Sans, Verdana" font-size="12" lengthAdjust="spacing" textLength="216" x="784" y="631.7949">Oversee Onsite Agent Assignments</text><polygon fill="#C6C6C6" points="1116,690.5938,1126,694.5938,1116,698.5938,1120,694.5938" style="stroke:#C6C6C6;stroke-width:1.0;"/><line style="stroke:#C6C6C6;stroke-width:1.0;" x1="44" x2="1122" y1="694.5938" y2="694.5938"/><text fill="#262626" font-family="IBM Plex Sans, Noto Sans, Verdana" font-size="12" lengthAdjust="spacing" textLength="140" x="61" y="679.7637">Monitor Event Progress</text><polygon fill="#C6C6C6" points="55,738.5625,45,742.5625,55,746.5625,51,742.5625" style="stroke:#C6C6C6;stroke-width:1.0;"/><line style="stroke:#C6C6C6;stroke-width:1.0;stroke-dasharray:2.0,2.0;" x1="49" x2="1127" y1="742.5625" y2="742.5625"/><text fill="#262626" font-family="IBM Plex Sans, Noto Sans, Verdana" font-size="12" lengthAdjust="spacing" textLength="136" x="71" y="727.7324">Display Event Updates</text><path d="M959,755.5625 L959,798.5625 L1297,798.5625 L1297,765.5625 L1287,755.5625 L959,755.5625 " fill="#FFFFFF" style="stroke:#262626;stroke-width:1.0;"/><path d="M1287,755.5625 L1287,765.5625 L1297,765.5625 L1287,755.5625 " fill="#FFFFFF" style="stroke:#262626;stroke-width:1.0;"/><text fill="#262626" font-family="IBM Plex Sans, Noto Sans, Verdana" font-size="12" lengthAdjust="spacing" textLength="297" x="975" y="781.7012">Manage Event Issues and Receive Status Reports</text><!--SRC=[XLB1Ri8m3BtdAppkY7iFawh10MaJ2BJTlTRhB56dYjCY_dwc1AajHRibVk_vFIT-YRzK4nGOlhqigu0Nvx28Fi072bOKd4i7MBx2ujrNB0l8O2FHIgrI43GzIWaDgfvzADsTjJJ5NPn1tfgLH2um4jGppTzERFYjKDifI-84g9iIXWOPV36TLvkIO-B3Ldvyg36o5-V4cwllpEaV6yYBmhTNks6sJJUlwUlg9l2pO3qDrXIHJphCzD3-s3OKEjRa0FlWgq0w3hKJvKXvDH_jXa8FgvlbZdFcgbp9wa2rPPh81rcVkEuCKnhhKikQPf_pFgFzZuNsmjUjcumx9OuJhrcR4rwIwBCfRRKUttNiC_WtsAgsfFto7gWWjh6F4MEhTcryYFe7]--></g></svg>